<svg width="35" height="36" viewBox="0 0 35 36" fill="none" xmlns="http://www.w3.org/2000/svg">
<path d="M33.8748 29.9535C33.6544 30.9417 33.1079 31.8269 32.3233 32.4668C31.4661 33.3361 30.4448 34.0265 29.3185 34.4977C28.1923 34.9689 26.9836 35.2117 25.7628 35.2118H25.1924C22.63 35.0726 20.121 34.4241 17.8122 33.304H17.7946C17.2593 33.0548 16.7065 32.8055 16.1712 32.5019C13.4761 30.9908 11.0041 29.1124 8.82612 26.9207C5.99964 24.2659 3.68019 21.1186 1.98125 17.6328C1.07834 15.7225 0.475685 13.6842 0.194566 11.59C-0.218825 9.39794 0.0298467 7.1324 0.908889 5.08216C1.46384 4.1572 2.14163 3.31174 2.92374 2.56888C3.27566 2.17091 3.70591 1.84984 4.18759 1.62576C4.66927 1.40168 5.19201 1.27941 5.72311 1.2666C6.30071 1.33043 6.85989 1.50837 7.36816 1.79007C7.87644 2.07177 8.32369 2.45164 8.68395 2.90761C9.48603 3.77989 10.4654 4.68902 11.2692 5.52796L12.3749 6.61611C13.0243 7.19178 13.4262 7.99561 13.4982 8.86262C13.4982 9.65768 13.2051 10.4247 12.6768 11.0196C12.3347 11.4357 11.9715 11.8341 11.5886 12.2131L11.2323 12.5869C11.0252 12.78 10.8673 13.0187 10.769 13.2837C10.6812 13.5446 10.6461 13.812 10.6637 14.0858C10.9463 14.8422 11.3903 15.5302 11.9625 16.1006C12.8558 17.3116 13.7474 18.3647 14.6565 19.5055C16.301 21.4145 18.2525 23.0357 20.4308 24.3021C20.6537 24.4654 20.9099 24.5742 21.182 24.6216C21.4172 24.6391 21.6558 24.604 21.877 24.5163C22.5 24.1494 23.0529 23.6791 23.5162 23.1245C24.1393 22.3614 25.0339 21.8695 26.012 21.752C26.9532 21.7649 27.8511 22.1498 28.5095 22.8226C28.8658 23.1245 29.2572 23.5352 29.6327 23.9283L30.1663 24.4794L30.7191 25.0147L31.6651 25.9765C32.2291 26.4773 32.758 27.0126 33.2517 27.5824C33.7467 28.2669 33.9696 29.1146 33.8748 29.9535ZM27.4757 17.7399C27.1222 17.7362 26.7841 17.5941 26.5341 17.3441C26.2841 17.0941 26.142 16.756 26.1384 16.4025C26.1402 15.3929 25.9427 14.3929 25.5572 13.4598C25.1717 12.5268 24.6058 11.679 23.8919 10.9651C23.1781 10.2512 22.3303 9.68532 21.3972 9.29983C20.4641 8.91434 19.4641 8.71686 18.4546 8.71871C18.0999 8.71871 17.7597 8.5778 17.5089 8.327C17.2581 8.07619 17.1172 7.73602 17.1172 7.38133C17.1172 7.02663 17.2581 6.68647 17.5089 6.43566C17.7597 6.18485 18.0999 6.04395 18.4546 6.04395C19.8154 6.04187 21.1634 6.30838 22.4211 6.82821C23.6788 7.34804 24.8215 8.11096 25.7838 9.07326C26.7461 10.0355 27.509 11.1783 28.0289 12.436C28.5487 13.6937 28.8152 15.0416 28.8131 16.4025C28.8136 16.5782 28.7793 16.7524 28.7123 16.9148C28.6452 17.0773 28.5467 17.2249 28.4224 17.3492C28.2982 17.4735 28.1505 17.572 27.9881 17.639C27.8256 17.706 27.6515 17.7403 27.4757 17.7399Z" fill="#062C3C"/>
<path d="M33.6627 17.1147C33.3094 17.1111 32.9716 16.9693 32.7217 16.7196C32.4717 16.47 32.3294 16.1324 32.3253 15.7791C32.3281 14.059 31.9916 12.3551 31.3352 10.7651C30.6788 9.17515 29.7153 7.7302 28.4999 6.51297C27.2844 5.29573 25.8409 4.33011 24.2519 3.67136C22.6628 3.0126 20.9595 2.67364 19.2393 2.67388C19.0598 2.68039 18.8807 2.65064 18.7129 2.5864C18.545 2.52217 18.3919 2.42477 18.2625 2.30002C18.1332 2.17527 18.0303 2.02573 17.96 1.86034C17.8897 1.69494 17.8535 1.51708 17.8535 1.33738C17.8535 1.15767 17.8897 0.979811 17.96 0.814416C18.0303 0.64902 18.1332 0.499483 18.2625 0.374735C18.3919 0.249987 18.545 0.152588 18.7129 0.0883539C18.8807 0.0241198 19.0598 -0.00563135 19.2393 0.000877589C21.3105 0.000876304 23.3614 0.40912 25.2748 1.20227C27.1881 1.99541 28.9263 3.15791 30.3901 4.62328C31.8538 6.08866 33.0144 7.82817 33.8054 9.74238C34.5964 11.6566 35.0024 13.7079 35.0001 15.7791C35.0005 15.9549 34.9663 16.129 34.8992 16.2915C34.8322 16.4539 34.7337 16.6015 34.6094 16.7258C34.4851 16.8501 34.3375 16.9486 34.175 17.0156C34.0126 17.0827 33.8385 17.1152 33.6627 17.1147Z" fill="#062C3C"/>
</svg>
