<svg width="21" height="21" viewBox="0 0 21 21" fill="none" xmlns="http://www.w3.org/2000/svg">
<path fill-rule="evenodd" clip-rule="evenodd" d="M9.34085 2.09261e-08C7.85123 0.00012608 6.38324 0.354104 5.05936 1.0324C3.73548 1.71069 2.59409 2.69364 1.73042 3.89923C0.866746 5.10481 0.305842 6.49808 0.0944992 7.96279C-0.116843 9.4275 0.0275043 10.9212 0.5155 12.3192C1.00349 13.7172 1.82099 14.9791 2.89977 15.9994C3.97856 17.0198 5.28735 17.7691 6.71696 18.1848C8.14657 18.6006 9.65554 18.6707 11.118 18.3893C12.5804 18.108 13.9539 17.4833 15.1239 16.5674L19.1375 20.5542C19.3448 20.7531 19.6224 20.8631 19.9105 20.8606C20.1987 20.8582 20.4743 20.7433 20.6781 20.5409C20.8819 20.3385 20.9975 20.0647 21 19.7785C21.0025 19.4922 20.8917 19.2165 20.6915 19.0106L16.6779 15.0238C17.7637 13.6555 18.4398 12.0111 18.6287 10.279C18.8177 8.54685 18.5119 6.79685 17.7464 5.22927C16.9808 3.66169 15.7865 2.33987 14.2999 1.41508C12.8134 0.490283 11.0948 -0.000116967 9.34085 2.09261e-08ZM2.19724 9.27932C2.19724 7.39736 2.94987 5.59247 4.28955 4.26172C5.62924 2.93098 7.44625 2.18337 9.34085 2.18337C11.2355 2.18337 13.0525 2.93098 14.3921 4.26172C15.7318 5.59247 16.4845 7.39736 16.4845 9.27932C16.4845 11.1613 15.7318 12.9662 14.3921 14.2969C13.0525 15.6277 11.2355 16.3753 9.34085 16.3753C7.44625 16.3753 5.62924 15.6277 4.28955 14.2969C2.94987 12.9662 2.19724 11.1613 2.19724 9.27932Z" fill="white"/>
</svg>
