<svg width="24" height="24" viewBox="0 0 24 24" fill="none" xmlns="http://www.w3.org/2000/svg">
<path d="M11.6676 2.10194C14.7831 2.10194 15.1518 2.11441 16.3827 2.16963C17.5209 2.22129 18.1373 2.41189 18.5487 2.57221C19.0938 2.78418 19.4821 3.03713 19.8901 3.44505C20.298 3.85297 20.5509 4.24129 20.7629 4.78637C20.9232 5.19785 21.112 5.81597 21.1655 6.95244C21.2207 8.18332 21.2332 8.55205 21.2332 11.6676C21.2332 14.7831 21.2207 15.1518 21.1655 16.3827C21.1138 17.5209 20.9232 18.1373 20.7629 18.5487C20.5509 19.0938 20.298 19.4821 19.8901 19.8901C19.4821 20.298 19.0938 20.5509 18.5487 20.7629C18.1373 20.9232 17.5191 21.112 16.3827 21.1655C15.1518 21.2207 14.7831 21.2332 11.6676 21.2332C8.55205 21.2332 8.18332 21.2207 6.95244 21.1655C5.81418 21.1138 5.19785 20.9232 4.78637 20.7629C4.24129 20.5509 3.85297 20.298 3.44505 19.8901C3.03713 19.4821 2.78418 19.0938 2.57221 18.5487C2.41189 18.1373 2.22307 17.5191 2.16963 16.3827C2.11441 15.1518 2.10194 14.7831 2.10194 11.6676C2.10194 8.55205 2.11441 8.18332 2.16963 6.95244C2.22129 5.81418 2.41189 5.19785 2.57221 4.78637C2.78418 4.24129 3.03713 3.85297 3.44505 3.44505C3.85297 3.03713 4.24129 2.78418 4.78637 2.57221C5.19785 2.41189 5.81597 2.22307 6.95244 2.16963C8.18332 2.11441 8.55205 2.10194 11.6676 2.10194ZM11.6676 0C8.49861 0 8.10138 0.0142504 6.85625 0.0694709C5.61468 0.126473 4.76678 0.324198 4.02397 0.610988C3.25623 0.908466 2.60605 1.30748 1.95766 1.95587C1.30926 2.60427 0.910248 3.25445 0.612769 4.02219C0.324198 4.76499 0.126473 5.6129 0.0712523 6.85447C0.0142505 8.10138 0 8.49861 0 11.6676C0 14.8365 0.0142504 15.2337 0.0694709 16.4771C0.126473 17.7187 0.324198 18.5666 0.610988 19.3094C0.908466 20.0771 1.30748 20.7273 1.95587 21.3757C2.60427 22.0241 3.25445 22.4231 4.02219 22.7223C4.76499 23.0109 5.6129 23.2086 6.85447 23.2639C8.0996 23.3209 8.49683 23.3333 11.6658 23.3333C14.8347 23.3333 15.232 23.3191 16.4771 23.2639C17.7187 23.2069 18.5666 23.0091 19.3094 22.7223C20.0771 22.4249 20.7273 22.0259 21.3757 21.3757C22.0241 20.7273 22.4231 20.0771 22.7223 19.3094C23.0109 18.5666 23.2086 17.7187 23.2639 16.4771C23.3209 15.232 23.3333 14.8347 23.3333 11.6658C23.3333 8.49683 23.3191 8.0996 23.2639 6.85447C23.2069 5.6129 23.0091 4.76499 22.7223 4.02219C22.4249 3.25445 22.0259 2.60427 21.3757 1.95587C20.7273 1.30748 20.0771 0.908466 19.3094 0.610988C18.5666 0.322416 17.7187 0.124691 16.4771 0.0694709C15.2337 0.0142504 14.8365 0 11.6676 0ZM11.6676 5.67524C8.35789 5.67524 5.67702 8.35789 5.67702 11.6676C5.67702 14.9772 8.35967 17.6581 11.6676 17.6581C14.9772 17.6581 17.6581 14.9754 17.6581 11.6676C17.6581 8.35789 14.9772 5.67524 11.6676 5.67524ZM11.6676 15.5561C9.5193 15.5561 7.77896 13.814 7.77896 11.6676C7.77896 9.5193 9.52108 7.77896 11.6676 7.77896C13.814 7.77896 15.5561 9.5193 15.5561 11.6676C15.5561 13.8158 13.8158 15.5561 11.6676 15.5561ZM17.895 4.04C17.1219 4.04 16.4949 4.66702 16.4949 5.44011C16.4949 6.2132 17.1219 6.84022 17.895 6.84022C18.6681 6.84022 19.2951 6.2132 19.2951 5.44011C19.2951 4.66524 18.6681 4.04 17.895 4.04Z" fill="url(#paint0_radial_1142_686)"/>
<defs>
<radialGradient id="paint0_radial_1142_686" cx="0" cy="0" r="1" gradientUnits="userSpaceOnUse" gradientTransform="translate(-4.22467 20.3324) scale(36.492)">
<stop offset="0.9852"/>
</radialGradient>
</defs>
</svg>
