<svg width="22" height="20" viewBox="0 0 22 20" fill="none" xmlns="http://www.w3.org/2000/svg">
<path d="M10.8309 0C4.84838 0 0 3.82863 0 8.55374C0 11.5948 2.01067 14.2546 5.02667 15.7751L4.00648 19.584C3.96686 19.6979 3.99657 19.8266 4.08571 19.9108C4.14514 19.9703 4.21943 20 4.30857 20C4.37295 20 4.43733 19.9703 4.49676 19.9257L8.88457 16.9638C9.51848 17.053 10.1722 17.1075 10.8358 17.1075C16.8183 17.1075 21.6667 13.2789 21.6667 8.55374C21.6617 3.82863 16.8084 0 10.8309 0Z" fill="black"/>
<path d="M3.79813 7.20153H2.61947C2.45604 7.20153 2.31737 7.16191 2.19851 7.08762C2.07966 7.01828 2.01032 6.90931 1.98061 6.77063C1.98061 6.73596 1.97566 6.69138 1.9707 6.65176C1.9707 6.4784 2.03013 6.34468 2.15394 6.25057C2.27775 6.15646 2.43127 6.10693 2.61947 6.10693H6.2248C6.38823 6.10693 6.52689 6.14656 6.6408 6.2159C6.75966 6.29019 6.82899 6.3942 6.8587 6.53289C6.86366 6.57251 6.86861 6.60718 6.86861 6.65176C6.86861 6.83006 6.80918 6.95884 6.69032 7.0579C6.57147 7.15201 6.41794 7.20153 6.22975 7.20153H5.05108V11.263C5.05108 11.4561 4.99166 11.6146 4.87775 11.7335C4.7688 11.8524 4.61032 11.9118 4.42213 11.9118C4.26366 11.9118 4.12994 11.8672 4.02099 11.783C3.91204 11.6939 3.8427 11.575 3.81299 11.4314C3.80308 11.3769 3.79813 11.3224 3.80308 11.263L3.79813 7.20153Z" fill="#CBCBCB"/>
<path d="M7.17093 6.3991C7.22046 6.25546 7.2997 6.1564 7.39874 6.09697C7.49779 6.03753 7.62655 6.00781 7.78008 6.00781H8.08217C8.2456 6.00781 8.37931 6.04248 8.48827 6.10687C8.59722 6.17126 8.68636 6.30004 8.74579 6.4833L10.2513 10.8468C10.3008 10.9806 10.3355 11.0994 10.3553 11.1935C10.3652 11.2579 10.3751 11.3075 10.3801 11.3421C10.3751 11.5006 10.3206 11.6344 10.2018 11.7433C10.0879 11.8572 9.94922 11.9068 9.78579 11.9068C9.49855 11.9068 9.31036 11.7879 9.22617 11.5502L8.90427 10.5992H6.89855L6.57665 11.5502C6.49741 11.7879 6.31417 11.9068 6.01703 11.9068C5.87341 11.9068 5.7496 11.8721 5.65055 11.7929C5.55151 11.7186 5.48712 11.6096 5.45741 11.4709C5.44751 11.4313 5.44751 11.3867 5.44751 11.3372C5.44255 11.2728 5.45246 11.1985 5.48217 11.1093C5.50693 11.0202 5.53665 10.931 5.56636 10.8419L7.17093 6.3991ZM7.9237 7.4095H7.90884L7.17589 9.69776H8.63684L7.9237 7.4095Z" fill="#CBCBCB"/>
<path d="M10.5635 6.65177C10.5635 6.4586 10.6229 6.30011 10.7319 6.18124C10.8408 6.06236 10.9943 6.00293 11.1875 6.00293C11.346 6.00293 11.4797 6.04751 11.5886 6.13171C11.6976 6.22086 11.7669 6.33478 11.7966 6.48337C11.8065 6.53785 11.8115 6.59233 11.8065 6.64681V10.7082H13.8915C14.0599 10.7082 14.1985 10.7429 14.3124 10.8172C14.4263 10.8915 14.4957 11.0005 14.5254 11.1342C14.5353 11.1689 14.5402 11.2134 14.5452 11.2531C14.5452 11.4264 14.4858 11.5601 14.362 11.6542C14.2381 11.7483 14.0846 11.7979 13.8964 11.7979H11.2964C11.1033 11.7979 10.9448 11.7583 10.826 11.679C10.7071 11.6047 10.6279 11.471 10.5882 11.2927C10.5734 11.2184 10.5635 11.1342 10.5635 11.0401V6.65177Z" fill="#CBCBCB"/>
<path d="M14.6689 6.65184C14.6689 6.45867 14.7234 6.30018 14.8373 6.18131C14.9512 6.06244 15.0998 6.003 15.2929 6.003C15.4514 6.003 15.5851 6.04758 15.6891 6.13178C15.7981 6.22093 15.8674 6.33485 15.8971 6.48344C15.907 6.53792 15.912 6.5924 15.907 6.64688L15.912 8.53396L17.8682 6.28037C17.9573 6.18626 18.0366 6.11196 18.1059 6.06739C18.1802 6.02281 18.2644 5.99805 18.3634 5.99805C18.5021 5.99805 18.6259 6.03767 18.7348 6.11196C18.8487 6.18626 18.9131 6.28532 18.9428 6.41409C18.9428 6.41905 18.9478 6.43886 18.9527 6.46362C18.9527 6.48344 18.9527 6.50325 18.9577 6.51811C18.9577 6.60726 18.9379 6.68651 18.8983 6.75585C18.8586 6.82519 18.8091 6.89453 18.7497 6.96387L17.4819 8.37051L18.9973 10.7727L19.0419 10.847C19.1459 11.0104 19.2053 11.1293 19.2202 11.2085C19.2202 11.2135 19.2251 11.2284 19.2301 11.2482C19.2301 11.268 19.2301 11.2828 19.2301 11.2878C19.2301 11.5107 19.1657 11.6692 19.0419 11.7682C18.9181 11.8623 18.7646 11.9119 18.5863 11.9119C18.4575 11.9119 18.3585 11.8921 18.2743 11.8425C18.195 11.793 18.1108 11.7038 18.0316 11.5701L16.5954 9.25709L15.912 9.97031L15.9169 11.263C15.9169 11.4562 15.8575 11.6147 15.7436 11.7336C15.6297 11.8524 15.4762 11.9119 15.288 11.9119C15.1295 11.9119 14.9958 11.8673 14.8868 11.7831C14.7779 11.6939 14.7086 11.5751 14.6788 11.4314C14.6689 11.3769 14.664 11.3225 14.6689 11.263V6.65184Z" fill="#CBCBCB"/>
</svg>
