<svg width="23" height="23" viewBox="0 0 23 23" fill="none" xmlns="http://www.w3.org/2000/svg">
<path d="M1.1001 18.6001C1.1001 17.274 1.62688 16.0022 2.56456 15.0646C3.50225 14.1269 4.77402 13.6001 6.1001 13.6001H16.1001C17.4262 13.6001 18.6979 14.1269 19.6356 15.0646C20.5733 16.0022 21.1001 17.274 21.1001 18.6001C21.1001 19.2631 20.8367 19.899 20.3679 20.3679C19.899 20.8367 19.2631 21.1001 18.6001 21.1001H3.6001C2.93706 21.1001 2.30117 20.8367 1.83233 20.3679C1.36349 19.899 1.1001 19.2631 1.1001 18.6001Z" stroke="black" stroke-width="2.2" stroke-linejoin="round"/>
<path d="M11.1001 8.6001C13.1712 8.6001 14.8501 6.92117 14.8501 4.8501C14.8501 2.77903 13.1712 1.1001 11.1001 1.1001C9.02903 1.1001 7.3501 2.77903 7.3501 4.8501C7.3501 6.92117 9.02903 8.6001 11.1001 8.6001Z" stroke="black" stroke-width="2.2"/>
</svg>
