<svg width="24" height="17" viewBox="0 0 24 17" fill="none" xmlns="http://www.w3.org/2000/svg">
<path d="M23.1002 3.59508C23.1002 3.59508 22.8717 1.96154 22.1723 1.24316C21.2853 0.29919 20.2912 0.294391 19.8344 0.239992C16.5701 0 11.6722 0 11.6722 0H11.6627C11.6627 0 6.76479 0 3.49898 0.239992C3.04211 0.294391 2.04803 0.29919 1.16107 1.24316C0.461594 1.96154 0.234735 3.59508 0.234735 3.59508C0.234735 3.59508 0 5.51342 0 7.43016V9.2285C0 11.1468 0.23316 13.0636 0.23316 13.0636C0.23316 13.0636 0.461594 14.6971 1.1595 15.4155C2.04645 16.3595 3.21383 16.3291 3.73214 16.4283C5.59899 16.6107 11.6659 16.6667 11.6659 16.6667C11.6659 16.6667 16.5685 16.6587 19.8344 16.4203C20.2912 16.3643 21.2853 16.3595 22.1723 15.4171C22.8717 14.6971 23.1002 13.0652 23.1002 13.0652C23.1002 13.0652 23.3333 11.1484 23.3333 9.2301V7.43016C23.3333 5.51342 23.1002 3.59508 23.1002 3.59508ZM9.25708 11.4076V4.74865L15.5619 8.08934L9.25708 11.4076Z" fill="black"/>
</svg>
